o Default
v 0 0 0
v 3 3 0
v 0 3 0
v 3 0 0
v 3 6 0
v 0 6 0
v 0 6 0
v 3 9 0
v 0 9 0
v 3 6 0
v 0 9 0.375
v 3 9.75 0.375
v 0 9.75 0.375
v 3 9 0.375
v 3 9 -0.375
v 0 9.75 -0.375
v 3 9.75 -0.375
v 0 9 -0.375
v 3 6 0
v 0 9 0
v 3 9 0
v 0 6 0
v 3 3 0
v 0 6 0
v 3 6 0
v 0 3 0
v 3 0 0
v 0 0 0
v 0 9 0
v 3 9 0.375
v 0 9 0.375
v 3 9 0
v 0 9 -0.375
v 3 9 0
v 0 9 0
v 3 9 -0.375
v 0 9.75 0.375
v 3 9.75 -0.375
v 0 9.75 -0.375
v 3 9.75 0.3749999776482582
vt 0.8999999761581421 0.09090910106897354
vt 1 0.1818181872367859
vt 0.8999999761581421 0.1818181872367859
vt 0.8999999761581421 0.09090910106897354
vt 1 0.09090910106897354
vt 1 0.1818181872367859
vt 0.8999999761581421 0.1818181872367859
vt 1 0.27272728085517883
vt 0.8999999761581421 0.27272728085517883
vt 0.8999999761581421 0.1818181872367859
vt 1 0.1818181872367859
vt 1 0.27272728085517883
vt 0.8999999761581421 0.18181820213794708
vt 1 0.2613636553287506
vt 0.8999999761581421 0.2613636553287506
vt 0.8999999761581421 0.18181820213794708
vt 1 0.18181820213794708
vt 1 0.2613636553287506
vt 0.8999999761581421 0.2613636553287506
vt 1 0.29545456171035767
vt 0.8999999761581421 0.29545456171035767
vt 0.8999999761581421 0.2613636553287506
vt 1 0.2613636553287506
vt 1 0.29545456171035767
vt 0.8999999761581421 0.2613636553287506
vt 1 0.29545456171035767
vt 0.8999999761581421 0.29545456171035767
vt 0.8999999761581421 0.2613636553287506
vt 1 0.2613636553287506
vt 1 0.29545456171035767
vt 0.8999999761581421 0.18181820213794708
vt 1 0.27272728085517883
vt 0.8999999761581421 0.27272728085517883
vt 0.8999999761581421 0.18181820213794708
vt 1 0.18181820213794708
vt 1 0.27272728085517883
vt 0.8999999761581421 0.1818181872367859
vt 1 0.27272728085517883
vt 0.8999999761581421 0.27272728085517883
vt 0.8999999761581421 0.1818181872367859
vt 1 0.1818181872367859
vt 1 0.27272728085517883
vt 0.8999999761581421 0.09090910106897354
vt 1 0.1818181872367859
vt 0.8999999761581421 0.1818181872367859
vt 0.8999999761581421 0.09090910106897354
vt 1 0.09090910106897354
vt 1 0.1818181872367859
vt 0.8999999761581421 0.2613636255264282
vt 1 0.29545456171035767
vt 0.8999999761581421 0.29545456171035767
vt 0.8999999761581421 0.2613636255264282
vt 1 0.2613636255264282
vt 1 0.29545456171035767
vt 0.8999999761581421 0.2613636255264282
vt 1 0.29545456171035767
vt 0.8999999761581421 0.29545456171035767
vt 0.8999999761581421 0.2613636255264282
vt 1 0.2613636255264282
vt 1 0.29545456171035767
vt 0.8999999761581421 0.2727273106575012
vt 1 0.2954545319080353
vt 0.8999999761581421 0.2954545319080353
vt 0.8999999761581421 0.2727273106575012
vt 1 0.2727273106575012
vt 1 0.2954545319080353
vn 0 0 1
vn 0 0 1
vn 0 0 1
vn 0 0 1
vn 0 0 1
vn 0 0 1
vn 0 0 1
vn 0 0 1
vn 0 0 1
vn 0 0 1
vn 0 0 1
vn 0 0 1
vn 0 0 1
vn 0 0 1
vn 0 0 1
vn 0 0 1
vn 0 0 1
vn 0 0 1
vn 0 0 1
vn 0 0 1
vn 0 0 1
vn 0 0 1
vn 0 0 1
vn 0 0 1
vn 0 0 -1
vn 0 0 -1
vn 0 0 -1
vn 0 0 -1
vn 0 0 -1
vn 0 0 -1
vn 0 0 -1
vn 0 0 -1
vn 0 0 -1
vn 0 0 -1
vn 0 0 -1
vn 0 0 -1
vn 0 0 -1
vn 0 0 -1
vn 0 0 -1
vn 0 0 -1
vn 0 0 -1
vn 0 0 -1
vn 0 0 -1
vn 0 0 -1
vn 0 0 -1
vn 0 0 -1
vn 0 0 -1
vn 0 0 -1
vn 0 -1 0
vn 0 -1 0
vn 0 -1 0
vn 0 -1 0
vn 0 -1 0
vn 0 -1 0
vn 0 -1 0
vn 0 -1 0
vn 0 -1 0
vn 0 -1 0
vn 0 -1 0
vn 0 -1 0
vn 0 1 0
vn 0 1 0
vn 0 1 0
vn 0 1 0
vn 0 1 0
vn 0 1 0
g Scene
usemtl material0
f 1/1/1 2/2/2 3/3/3
f 1/4/4 4/5/5 2/6/6
f 3/7/7 5/8/8 6/9/9
f 3/10/10 2/11/11 5/12/12
f 7/13/13 8/14/14 9/15/15
f 7/16/16 10/17/17 8/18/18
f 11/19/19 12/20/20 13/21/21
f 11/22/22 14/23/23 12/24/24
f 15/25/25 16/26/26 17/27/27
f 15/28/28 18/29/29 16/30/30
f 19/31/31 20/32/32 21/33/33
f 19/34/34 22/35/35 20/36/36
f 23/37/37 24/38/38 25/39/39
f 23/40/40 26/41/41 24/42/42
f 27/43/43 26/44/44 23/45/45
f 27/46/46 28/47/47 26/48/48
f 29/49/49 30/50/50 31/51/51
f 29/52/52 32/53/53 30/54/54
f 33/55/55 34/56/56 35/57/57
f 33/58/58 36/59/59 34/60/60
f 37/61/61 38/62/62 39/63/63
f 37/64/64 40/65/65 38/66/66
