o Default
v 2.4375 0 -17.625
v 3 9 -18
v 2.4375 9 -17.625
v 3 0 -18
v 12 9 -18
v 12 0 -18
v 14.4375 0 -17.625
v 15 9 -18
v 14.4375 9 -17.625
v 15 0 -18
v 24 9 -18
v 24 0 -18
v 26.4375 0 -17.625
v 27 9 -18
v 26.4375 9 -17.625
v 27 0 -18
v 0 9 -18
v 27 9 -16.5
v 0 9 -16.5
v 0 9 -16.5
v 27 10.5 -16.5
v 0 10.5 -16.5
v 27 9 -16.5
v 0 10.5 -16.5
v 27 10.5 -19.5
v 0 10.5 -19.5
v 27 10.5 -16.5
v 0 0 -18
v 0.5625 9 -17.625
v 0.5625 0 -17.625
v 1.125 9 -17.25
v 1.125 0 -17.25
v 1.875 9 -17.25
v 1.875 0 -17.25
v 12.5625 9 -17.625
v 12.5625 0 -17.625
v 13.125 9 -17.25
v 13.125 0 -17.25
v 13.875 9 -17.25
v 13.875 0 -17.25
v 24.5625 9 -17.625
v 24.5625 0 -17.625
v 25.125 9 -17.25
v 25.125 0 -17.25
v 25.875 9 -17.25
v 25.875 0 -17.25
v 25.125 0 18.75
v 25.875 9 18.75
v 25.125 9 18.75
v 25.875 0 18.75
v 24.5625 0 18.375
v 24.5625 9 18.375
v 24 0 18
v 24 9 18
v 26.4375 0 18.375
v 27 9 18
v 26.4375 9 18.375
v 27 0 18
v 1.875 0 18.75
v 2.4375 9 18.375
v 1.875 9 18.75
v 2.4375 0 18.375
v 1.125 0 18.75
v 1.125 9 18.75
v 0.5625 0 18.375
v 0.5625 9 18.375
v 0 0 18
v 0 9 18
v 27 10.5 16.875
v 0 10.5 19.875
v 27 10.5 19.875
v 0 10.5 16.875
v 0 9 19.5
v 27 10.5 19.5
v 0 10.5 19.5
v 27 9 19.5
v 27 9 19.5
v 0 9 19.5
v 3 0 18
v 12 9 18
v 3 9 18
v 12 0 18
v 13.875 0 18.75
v 14.4375 9 18.375
v 13.875 9 18.75
v 14.4375 0 18.375
v 13.125 0 18.75
v 13.125 9 18.75
v 12.5625 0 18.375
v 12.5625 9 18.375
v 15 0 18
v 15 9 18
v 0 -0.0008018247317522764 -9.000750303268433
v 27 -0.0008018247317522764 -9.000750303268433
v 0 -0.0018385016592219472 -0.0016500824131071568
v 27 -0.0008018247317522764 -9.000750303268433
v 0 -0.0008018247317522764 -9.000750303268433
v 27 -0.0018385016592219472 -0.0016500824131071568
v 0 -0.0025213821209035814 8.997450113296509
v 27 -0.0018385016592219472 -0.0016500824131071568
v 0 -0.0018385016592219472 -0.0016500824131071568
v 27 -0.0025213821209035814 8.997450113296509
v 0 0 18
v 27 -0.0025213821209035814 8.997450113296509
v 0 -0.0025213821209035814 8.997450113296509
v 27 -0.0035517909564077854 17.996549606323242
vt 0.08888889104127884 0.375
vt 0.1111111119389534 0.75
vt 0.08888889104127884 0.75
vt 0.08888889104127884 0.375
vt 0.1111111119389534 0.375
vt 0.1111111119389534 0.75
vt 0.1111111119389534 0.375
vt 0.4444444477558136 0.75
vt 0.1111111119389534 0.75
vt 0.1111111119389534 0.375
vt 0.4444444477558136 0.375
vt 0.4444444477558136 0.75
vt 0.5333333611488342 0.375
vt 0.5555555820465088 0.75
vt 0.5333333611488342 0.75
vt 0.5333333611488342 0.375
vt 0.5555555820465088 0.375
vt 0.5555555820465088 0.75
vt 0.5555555820465088 0.375
vt 0.8888888955116272 0.75
vt 0.5555555820465088 0.75
vt 0.5555555820465088 0.375
vt 0.8888888955116272 0.375
vt 0.8888888955116272 0.75
vt 0.9777777791023254 0.375
vt 1 0.75
vt 0.9777777791023254 0.75
vt 0.9777777791023254 0.375
vt 1 0.375
vt 1 0.75
vt 0 0.75
vt 1 0.8125
vt 0 0.8125
vt 0 0.75
vt 1 0.75
vt 1 0.8125
vt 0 0.75
vt 1 0.8125
vt 0 0.8125
vt 0 0.75
vt 1 0.75
vt 1 0.8125
vt 0 0.875
vt 1 1
vt 0 1
vt 0 0.875
vt 1 0.875
vt 1 1
vt 0 0.375
vt 0.02222222276031971 0.75
vt 0 0.75
vt 0 0.375
vt 0.02222222276031971 0.375
vt 0.02222222276031971 0.75
vt 0.02222222276031971 0.375
vt 0.04444444552063942 0.75
vt 0.02222222276031971 0.75
vt 0.02222222276031971 0.375
vt 0.04444444552063942 0.375
vt 0.04444444552063942 0.75
vt 0.04444444552063942 0.375
vt 0.06666667014360428 0.75
vt 0.04444444552063942 0.75
vt 0.04444444552063942 0.375
vt 0.06666667014360428 0.375
vt 0.06666667014360428 0.75
vt 0.06666667014360428 0.375
vt 0.08888889104127884 0.75
vt 0.06666667014360428 0.75
vt 0.06666667014360428 0.375
vt 0.08888889104127884 0.375
vt 0.08888889104127884 0.75
vt 0.4444444477558136 0.375
vt 0.46666666865348816 0.75
vt 0.4444444477558136 0.75
vt 0.4444444477558136 0.375
vt 0.46666666865348816 0.375
vt 0.46666666865348816 0.75
vt 0.46666666865348816 0.375
vt 0.4888888895511627 0.75
vt 0.46666666865348816 0.75
vt 0.46666666865348816 0.375
vt 0.4888888895511627 0.375
vt 0.4888888895511627 0.75
vt 0.4888888895511627 0.375
vt 0.5111111402511597 0.75
vt 0.4888888895511627 0.75
vt 0.4888888895511627 0.375
vt 0.5111111402511597 0.375
vt 0.5111111402511597 0.75
vt 0.5111111402511597 0.375
vt 0.5333333611488342 0.75
vt 0.5111111402511597 0.75
vt 0.5111111402511597 0.375
vt 0.5333333611488342 0.375
vt 0.5333333611488342 0.75
vt 0.8888888955116272 0.375
vt 0.9111111164093018 0.75
vt 0.8888888955116272 0.75
vt 0.8888888955116272 0.375
vt 0.9111111164093018 0.375
vt 0.9111111164093018 0.75
vt 0.9111111164093018 0.375
vt 0.9333333373069763 0.75
vt 0.9111111164093018 0.75
vt 0.9111111164093018 0.375
vt 0.9333333373069763 0.375
vt 0.9333333373069763 0.75
vt 0.9333333373069763 0.375
vt 0.9555555582046509 0.75
vt 0.9333333373069763 0.75
vt 0.9333333373069763 0.375
vt 0.9555555582046509 0.375
vt 0.9555555582046509 0.75
vt 0.9555555582046509 0.375
vt 0.9777777791023254 0.75
vt 0.9555555582046509 0.75
vt 0.9555555582046509 0.375
vt 0.9777777791023254 0.375
vt 0.9777777791023254 0.75
vt 0.9333333373069763 0.375
vt 0.9555555582046509 0.75
vt 0.9333333373069763 0.75
vt 0.9333333373069763 0.375
vt 0.9555555582046509 0.375
vt 0.9555555582046509 0.75
vt 0.9111111164093018 0.375
vt 0.9333333373069763 0.75
vt 0.9111111164093018 0.75
vt 0.9111111164093018 0.375
vt 0.9333333373069763 0.375
vt 0.9333333373069763 0.75
vt 0.8888888955116272 0.375
vt 0.9111111164093018 0.75
vt 0.8888888955116272 0.75
vt 0.8888888955116272 0.375
vt 0.9111111164093018 0.375
vt 0.9111111164093018 0.75
vt 0.9777777791023254 0.375
vt 1 0.75
vt 0.9777777791023254 0.75
vt 0.9777777791023254 0.375
vt 1 0.375
vt 1 0.75
vt 0.06666667014360428 0.375
vt 0.08888889104127884 0.75
vt 0.06666667014360428 0.75
vt 0.06666667014360428 0.375
vt 0.08888889104127884 0.375
vt 0.08888889104127884 0.75
vt 0.04444444552063942 0.375
vt 0.06666667014360428 0.75
vt 0.04444444552063942 0.75
vt 0.04444444552063942 0.375
vt 0.06666667014360428 0.375
vt 0.06666667014360428 0.75
vt 0.02222222276031971 0.375
vt 0.04444444552063942 0.75
vt 0.02222222276031971 0.75
vt 0.02222222276031971 0.375
vt 0.04444444552063942 0.375
vt 0.04444444552063942 0.75
vt 0 0.375
vt 0.02222222276031971 0.75
vt 0 0.75
vt 0 0.375
vt 0.02222222276031971 0.375
vt 0.02222222276031971 0.75
vt 0 0.875
vt 1 1
vt 0 1
vt 0 0.875
vt 1 0.875
vt 1 1
vt 0 0.75
vt 1 0.8125
vt 0 0.8125
vt 0 0.75
vt 1 0.75
vt 1 0.8125
vt 0 0.75
vt 1 0.8125
vt 0 0.8125
vt 0 0.75
vt 1 0.75
vt 1 0.8125
vt 0.1111111119389534 0.375
vt 0.4444444477558136 0.75
vt 0.1111111119389534 0.75
vt 0.1111111119389534 0.375
vt 0.4444444477558136 0.375
vt 0.4444444477558136 0.75
vt 0.08888889104127884 0.375
vt 0.1111111119389534 0.75
vt 0.08888889104127884 0.75
vt 0.08888889104127884 0.375
vt 0.1111111119389534 0.375
vt 0.1111111119389534 0.75
vt 0.5111111402511597 0.375
vt 0.5333333611488342 0.75
vt 0.5111111402511597 0.75
vt 0.5111111402511597 0.375
vt 0.5333333611488342 0.375
vt 0.5333333611488342 0.75
vt 0.4888888895511627 0.375
vt 0.5111111402511597 0.75
vt 0.4888888895511627 0.75
vt 0.4888888895511627 0.375
vt 0.5111111402511597 0.375
vt 0.5111111402511597 0.75
vt 0.46666666865348816 0.375
vt 0.4888888895511627 0.75
vt 0.46666666865348816 0.75
vt 0.46666666865348816 0.375
vt 0.4888888895511627 0.375
vt 0.4888888895511627 0.75
vt 0.4444444477558136 0.375
vt 0.46666666865348816 0.75
vt 0.4444444477558136 0.75
vt 0.4444444477558136 0.375
vt 0.46666666865348816 0.375
vt 0.46666666865348816 0.75
vt 0.5555555820465088 0.375
vt 0.8888888955116272 0.75
vt 0.5555555820465088 0.75
vt 0.5555555820465088 0.375
vt 0.8888888955116272 0.375
vt 0.8888888955116272 0.75
vt 0.5333333611488342 0.375
vt 0.5555555820465088 0.75
vt 0.5333333611488342 0.75
vt 0.5333333611488342 0.375
vt 0.5555555820465088 0.375
vt 0.5555555820465088 0.75
vt 0.9555555582046509 0.375
vt 0.9777777791023254 0.75
vt 0.9555555582046509 0.75
vt 0.9555555582046509 0.375
vt 0.9777777791023254 0.375
vt 0.9777777791023254 0.75
vt 0 0
vt 1 0.375
vt 0 0.375
vt 0 0
vt 1 0
vt 1 0.375
vt 0 0
vt 1 0.375
vt 0 0.375
vt 0 0
vt 1 0
vt 1 0.375
vt 0 0
vt 1 0.375
vt 0 0.375
vt 0 0
vt 1 0
vt 1 0.375
vt 0 0
vt 1 0.375
vt 0 0.375
vt 0 0
vt 1 0
vt 1 0.375
vn 0.5547001962252291 0 0.8320502943378436
vn 0.5547001962252291 0 0.8320502943378436
vn 0.5547001962252291 0 0.8320502943378436
vn 0.5547001962252291 0 0.8320502943378436
vn 0.5547001962252291 0 0.8320502943378436
vn 0.5547001962252291 0 0.8320502943378436
vn 0 0 1
vn 0 0 1
vn 0 0 1
vn 0 0 1
vn 0 0 1
vn 0 0 1
vn 0.5547001962252291 0 0.8320502943378436
vn 0.5547001962252291 0 0.8320502943378436
vn 0.5547001962252291 0 0.8320502943378436
vn 0.5547001962252291 0 0.8320502943378436
vn 0.5547001962252291 0 0.8320502943378436
vn 0.5547001962252291 0 0.8320502943378436
vn 0 0 1
vn 0 0 1
vn 0 0 1
vn 0 0 1
vn 0 0 1
vn 0 0 1
vn 0.5547001962252291 0 0.8320502943378436
vn 0.5547001962252291 0 0.8320502943378436
vn 0.5547001962252291 0 0.8320502943378436
vn 0.5547001962252291 0 0.8320502943378436
vn 0.5547001962252291 0 0.8320502943378436
vn 0.5547001962252291 0 0.8320502943378436
vn 0 -1 0
vn 0 -1 0
vn 0 -1 0
vn 0 -1 0
vn 0 -1 0
vn 0 -1 0
vn 0 0 1
vn 0 0 1
vn 0 0 1
vn 0 0 1
vn 0 0 1
vn 0 0 1
vn 0 1 0
vn 0 1 0
vn 0 1 0
vn 0 1 0
vn 0 1 0
vn 0 1 0
vn -0.5547001962252291 0 0.8320502943378436
vn -0.5547001962252291 0 0.8320502943378436
vn -0.5547001962252291 0 0.8320502943378436
vn -0.5547001962252291 0 0.8320502943378436
vn -0.5547001962252291 0 0.8320502943378436
vn -0.5547001962252291 0 0.8320502943378436
vn -0.5547001962252291 0 0.8320502943378436
vn -0.5547001962252291 0 0.8320502943378436
vn -0.5547001962252291 0 0.8320502943378436
vn -0.5547001962252291 0 0.8320502943378436
vn -0.5547001962252291 0 0.8320502943378436
vn -0.5547001962252291 0 0.8320502943378436
vn 0 0 1
vn 0 0 1
vn 0 0 1
vn 0 0 1
vn 0 0 1
vn 0 0 1
vn 0.5547001962252291 0 0.8320502943378436
vn 0.5547001962252291 0 0.8320502943378436
vn 0.5547001962252291 0 0.8320502943378436
vn 0.5547001962252291 0 0.8320502943378436
vn 0.5547001962252291 0 0.8320502943378436
vn 0.5547001962252291 0 0.8320502943378436
vn -0.5547001962252291 0 0.8320502943378436
vn -0.5547001962252291 0 0.8320502943378436
vn -0.5547001962252291 0 0.8320502943378436
vn -0.5547001962252291 0 0.8320502943378436
vn -0.5547001962252291 0 0.8320502943378436
vn -0.5547001962252291 0 0.8320502943378436
vn -0.5547001962252291 0 0.8320502943378436
vn -0.5547001962252291 0 0.8320502943378436
vn -0.5547001962252291 0 0.8320502943378436
vn -0.5547001962252291 0 0.8320502943378436
vn -0.5547001962252291 0 0.8320502943378436
vn -0.5547001962252291 0 0.8320502943378436
vn 0 0 1
vn 0 0 1
vn 0 0 1
vn 0 0 1
vn 0 0 1
vn 0 0 1
vn 0.5547001962252291 0 0.8320502943378436
vn 0.5547001962252291 0 0.8320502943378436
vn 0.5547001962252291 0 0.8320502943378436
vn 0.5547001962252291 0 0.8320502943378436
vn 0.5547001962252291 0 0.8320502943378436
vn 0.5547001962252291 0 0.8320502943378436
vn -0.5547001962252291 0 0.8320502943378436
vn -0.5547001962252291 0 0.8320502943378436
vn -0.5547001962252291 0 0.8320502943378436
vn -0.5547001962252291 0 0.8320502943378436
vn -0.5547001962252291 0 0.8320502943378436
vn -0.5547001962252291 0 0.8320502943378436
vn -0.5547001962252291 0 0.8320502943378436
vn -0.5547001962252291 0 0.8320502943378436
vn -0.5547001962252291 0 0.8320502943378436
vn -0.5547001962252291 0 0.8320502943378436
vn -0.5547001962252291 0 0.8320502943378436
vn -0.5547001962252291 0 0.8320502943378436
vn 0 0 1
vn 0 0 1
vn 0 0 1
vn 0 0 1
vn 0 0 1
vn 0 0 1
vn 0.5547001962252291 0 0.8320502943378436
vn 0.5547001962252291 0 0.8320502943378436
vn 0.5547001962252291 0 0.8320502943378436
vn 0.5547001962252291 0 0.8320502943378436
vn 0.5547001962252291 0 0.8320502943378436
vn 0.5547001962252291 0 0.8320502943378436
vn 0 0 1
vn 0 0 1
vn 0 0 1
vn 0 0 1
vn 0 0 1
vn 0 0 1
vn -0.5547001962252291 0 0.8320502943378436
vn -0.5547001962252291 0 0.8320502943378436
vn -0.5547001962252291 0 0.8320502943378436
vn -0.5547001962252291 0 0.8320502943378436
vn -0.5547001962252291 0 0.8320502943378436
vn -0.5547001962252291 0 0.8320502943378436
vn -0.5547001962252291 0 0.8320502943378436
vn -0.5547001962252291 0 0.8320502943378436
vn -0.5547001962252291 0 0.8320502943378436
vn -0.5547001962252291 0 0.8320502943378436
vn -0.5547001962252291 0 0.8320502943378436
vn -0.5547001962252291 0 0.8320502943378436
vn 0.5547001962252291 0 0.8320502943378436
vn 0.5547001962252291 0 0.8320502943378436
vn 0.5547001962252291 0 0.8320502943378436
vn 0.5547001962252291 0 0.8320502943378436
vn 0.5547001962252291 0 0.8320502943378436
vn 0.5547001962252291 0 0.8320502943378436
vn 0.5547001962252291 0 0.8320502943378436
vn 0.5547001962252291 0 0.8320502943378436
vn 0.5547001962252291 0 0.8320502943378436
vn 0.5547001962252291 0 0.8320502943378436
vn 0.5547001962252291 0 0.8320502943378436
vn 0.5547001962252291 0 0.8320502943378436
vn 0 0 1
vn 0 0 1
vn 0 0 1
vn 0 0 1
vn 0 0 1
vn 0 0 1
vn -0.5547001962252291 0 0.8320502943378436
vn -0.5547001962252291 0 0.8320502943378436
vn -0.5547001962252291 0 0.8320502943378436
vn -0.5547001962252291 0 0.8320502943378436
vn -0.5547001962252291 0 0.8320502943378436
vn -0.5547001962252291 0 0.8320502943378436
vn -0.5547001962252291 0 0.8320502943378436
vn -0.5547001962252291 0 0.8320502943378436
vn -0.5547001962252291 0 0.8320502943378436
vn -0.5547001962252291 0 0.8320502943378436
vn -0.5547001962252291 0 0.8320502943378436
vn -0.5547001962252291 0 0.8320502943378436
vn 0 1 0
vn 0 1 0
vn 0 1 0
vn 0 1 0
vn 0 1 0
vn 0 1 0
vn 0 0 1
vn 0 0 1
vn 0 0 1
vn 0 0 1
vn 0 0 1
vn 0 0 1
vn 0 -1 0
vn 0 -1 0
vn 0 -1 0
vn 0 -1 0
vn 0 -1 0
vn 0 -1 0
vn 0 0 1
vn 0 0 1
vn 0 0 1
vn 0 0 1
vn 0 0 1
vn 0 0 1
vn 0.5547001962252291 0 0.8320502943378436
vn 0.5547001962252291 0 0.8320502943378436
vn 0.5547001962252291 0 0.8320502943378436
vn 0.5547001962252291 0 0.8320502943378436
vn 0.5547001962252291 0 0.8320502943378436
vn 0.5547001962252291 0 0.8320502943378436
vn 0.5547001962252291 0 0.8320502943378436
vn 0.5547001962252291 0 0.8320502943378436
vn 0.5547001962252291 0 0.8320502943378436
vn 0.5547001962252291 0 0.8320502943378436
vn 0.5547001962252291 0 0.8320502943378436
vn 0.5547001962252291 0 0.8320502943378436
vn 0 0 1
vn 0 0 1
vn 0 0 1
vn 0 0 1
vn 0 0 1
vn 0 0 1
vn -0.5547001962252291 0 0.8320502943378436
vn -0.5547001962252291 0 0.8320502943378436
vn -0.5547001962252291 0 0.8320502943378436
vn -0.5547001962252291 0 0.8320502943378436
vn -0.5547001962252291 0 0.8320502943378436
vn -0.5547001962252291 0 0.8320502943378436
vn -0.5547001962252291 0 0.8320502943378436
vn -0.5547001962252291 0 0.8320502943378436
vn -0.5547001962252291 0 0.8320502943378436
vn -0.5547001962252291 0 0.8320502943378436
vn -0.5547001962252291 0 0.8320502943378436
vn -0.5547001962252291 0 0.8320502943378436
vn 0 0 1
vn 0 0 1
vn 0 0 1
vn 0 0 1
vn 0 0 1
vn 0 0 1
vn 0.5547001962252291 0 0.8320502943378436
vn 0.5547001962252291 0 0.8320502943378436
vn 0.5547001962252291 0 0.8320502943378436
vn 0.5547001962252291 0 0.8320502943378436
vn 0.5547001962252291 0 0.8320502943378436
vn 0.5547001962252291 0 0.8320502943378436
vn 0.5547001962252291 0 0.8320502943378436
vn 0.5547001962252291 0 0.8320502943378436
vn 0.5547001962252291 0 0.8320502943378436
vn 0.5547001962252291 0 0.8320502943378436
vn 0.5547001962252291 0 0.8320502943378436
vn 0.5547001962252291 0 0.8320502943378436
vn 0 0.9999999960306784 0.00008909906443209265
vn 0 0.9999999960306784 0.00008909906443209265
vn 0 0.9999999960306784 0.00008909906443209265
vn 0 0.9999999960306784 0.00008909906443209265
vn 0 0.9999999960306784 0.00008909906443209265
vn 0 0.9999999960306784 0.00008909906443209265
vn 0 0.9999999933647287 0.00011519784146736688
vn 0 0.9999999933647287 0.00011519784146736688
vn 0 0.9999999933647287 0.00011519784146736688
vn 0 0.9999999933647287 0.00011519784146736688
vn 0 0.9999999933647287 0.00011519784146736688
vn 0 0.9999999933647287 0.00011519784146736688
vn 0 0.9999999971208705 0.00007588319330427068
vn 0 0.9999999971208705 0.00007588319330427068
vn 0 0.9999999971208705 0.00007588319330427068
vn 0 0.9999999971208705 0.00007588319330427068
vn 0 0.9999999971208705 0.00007588319330427068
vn 0 0.9999999971208705 0.00007588319330427068
vn 0 0.9999999607792184 -0.0002800742071684616
vn 0 0.9999999607792184 -0.0002800742071684616
vn 0 0.9999999607792184 -0.0002800742071684616
vn 0.00013156244359391607 0.9999999847903849 0.00011450132545267785
vn 0.00013156244359391607 0.9999999847903849 0.00011450132545267785
vn 0.00013156244359391607 0.9999999847903849 0.00011450132545267785
g Scene
usemtl material1
f 1/1/1 2/2/2 3/3/3
f 1/4/4 4/5/5 2/6/6
f 4/7/7 5/8/8 2/9/9
f 4/10/10 6/11/11 5/12/12
f 7/13/13 8/14/14 9/15/15
f 7/16/16 10/17/17 8/18/18
f 10/19/19 11/20/20 8/21/21
f 10/22/22 12/23/23 11/24/24
f 13/25/25 14/26/26 15/27/27
f 13/28/28 16/29/29 14/30/30
f 17/31/31 18/32/32 19/33/33
f 17/34/34 14/35/35 18/36/36
f 20/37/37 21/38/38 22/39/39
f 20/40/40 23/41/41 21/42/42
f 24/43/43 25/44/44 26/45/45
f 24/46/46 27/47/47 25/48/48
f 28/49/49 29/50/50 17/51/51
f 28/52/52 30/53/53 29/54/54
f 30/55/55 31/56/56 29/57/57
f 30/58/58 32/59/59 31/60/60
f 32/61/61 33/62/62 31/63/63
f 32/64/64 34/65/65 33/66/66
f 34/67/67 3/68/68 33/69/69
f 34/70/70 1/71/71 3/72/72
f 6/73/73 35/74/74 5/75/75
f 6/76/76 36/77/77 35/78/78
f 36/79/79 37/80/80 35/81/81
f 36/82/82 38/83/83 37/84/84
f 38/85/85 39/86/86 37/87/87
f 38/88/88 40/89/89 39/90/90
f 40/91/91 9/92/92 39/93/93
f 40/94/94 7/95/95 9/96/96
f 12/97/97 41/98/98 11/99/99
f 12/100/100 42/101/101 41/102/102
f 42/103/103 43/104/104 41/105/105
f 42/106/106 44/107/107 43/108/108
f 44/109/109 45/110/110 43/111/111
f 44/112/112 46/113/113 45/114/114
f 46/115/115 15/116/116 45/117/117
f 46/118/118 13/119/119 15/120/120
f 47/121/121 48/122/122 49/123/123
f 47/124/124 50/125/125 48/126/126
f 51/127/127 49/128/128 52/129/129
f 51/130/130 47/131/131 49/132/132
f 53/133/133 52/134/134 54/135/135
f 53/136/136 51/137/137 52/138/138
f 55/139/139 56/140/140 57/141/141
f 55/142/142 58/143/143 56/144/144
f 59/145/145 60/146/146 61/147/147
f 59/148/148 62/149/149 60/150/150
f 63/151/151 61/152/152 64/153/153
f 63/154/154 59/155/155 61/156/156
f 65/157/157 64/158/158 66/159/159
f 65/160/160 63/161/161 64/162/162
f 67/163/163 66/164/164 68/165/165
f 67/166/166 65/167/167 66/168/168
f 69/169/169 70/170/170 71/171/171
f 69/172/172 72/173/173 70/174/174
f 73/175/175 74/176/176 75/177/177
f 73/178/178 76/179/179 74/180/180
f 68/181/181 77/182/182 78/183/183
f 68/184/184 56/185/185 77/186/186
f 79/187/187 80/188/188 81/189/189
f 79/190/190 82/191/191 80/192/192
f 62/193/193 81/194/194 60/195/195
f 62/196/196 79/197/197 81/198/198
f 83/199/199 84/200/200 85/201/201
f 83/202/202 86/203/203 84/204/204
f 87/205/205 85/206/206 88/207/207
f 87/208/208 83/209/209 85/210/210
f 89/211/211 88/212/212 90/213/213
f 89/214/214 87/215/215 88/216/216
f 82/217/217 90/218/218 80/219/219
f 82/220/220 89/221/221 90/222/222
f 91/223/223 54/224/224 92/225/225
f 91/226/226 53/227/227 54/228/228
f 86/229/229 92/230/230 84/231/231
f 86/232/232 91/233/233 92/234/234
f 50/235/235 57/236/236 48/237/237
f 50/238/238 55/239/239 57/240/240
f 93/241/241 16/242/242 28/243/243
f 93/244/244 94/245/245 16/246/246
f 95/247/247 96/248/248 97/249/249
f 95/250/250 98/251/251 96/252/252
f 99/253/253 100/254/254 101/255/255
f 99/256/256 102/257/257 100/258/258
f 103/259/259 104/260/260 105/261/261
f 103/262/262 106/263/263 104/264/264
