{"asset":{"version":"2.0","generator":"THREE.GLTFExporter"},"scenes":[{"name":"AuxScene","nodes":[0]}],"scene":0,"nodes":[{"mesh":0}],"bufferViews":[{"buffer":0,"byteOffset":0,"byteLength":7980,"target":34962,"byteStride":12},{"buffer":0,"byteOffset":7980,"byteLength":7980,"target":34962,"byteStride":12},{"buffer":0,"byteOffset":15960,"byteLength":5320,"target":34962,"byteStride":8},{"buffer":0,"byteOffset":21280,"byteLength":2220,"target":34963}],"buffers":[{"byteLength":23500,"uri":"data:application/octet-stream;base64,"}],"accessors":[{"bufferView":0,"componentType":5126,"count":665,"max":[15,12,24],"min":[-15,-0.0021793076302856207,-0.00030001497361809015],"type":"VEC3"},{"bufferView":1,"componentType":5126,"count":665,"max":[1,1,1],"min":[-1,-0.00043155025923624635,-1],"type":"VEC3"},{"bufferView":2,"componentType":5126,"count":665,"max":[0.625,0.625],"min":[0.0625,0.1875],"type":"VEC2"},{"bufferView":3,"componentType":5123,"count":1110,"max":[664],"min":[0],"type":"SCALAR"}],"materials":[{"pbrMetallicRoughness":{"metallicFactor":0.5,"roughnessFactor":0.5,"baseColorTexture":{"index":0}},"alphaMode":"MASK","alphaCutoff":0.01}],"textures":[{"sampler":0,"source":0}],"samplers":[{"magFilter":9728,"minFilter":9728,"wrapS":33071,"wrapT":33071}],"images":[{"mimeType":"image/png","uri":"texture_0.png"}],"meshes":[{"primitives":[{"mode":4,"attributes":{"POSITION":0,"NORMAL":1,"TEXCOORD_0":2},"indices":3,"material":0}]}]}