mtllib block.mtl
o Default
v -1.6653345369377348e-16 6 1.3322676295501878e-15
v 3 3 6.661338147750939e-16
v -1.6653345369377348e-16 3 6.661338147750939e-16
v 3 6 1.3322676295501878e-15
v 3 0 6
v 6 3 6
v 3 3 6
v 6 0 6
v 3 3.3306690738754696e-16 3
v 0 1.4936988942593913e-16 0
v 3 3.3306690738754696e-16 0
v 0 -5.167639352753221e-16 3
v 0 -5.167639352753221e-16 3
v -1.6653345369377348e-16 3 6.661338147750939e-16
v 0 1.4936988942593913e-16 0
v 0 3 3
v -1.6653345369377348e-16 3 6.661338147750939e-16
v 3 3.3306690738754696e-16 0
v 0 1.4936988942593913e-16 0
v 3 3 6.661338147750939e-16
v 0 -3.3306690738754696e-16 6
v 0 3 3
v 0 -5.167639352753221e-16 3
v 0 3 6
v 6 3 6.661338147750939e-16
v 3 6 1.3322676295501878e-15
v 6 6 1.3322676295501878e-15
v 6 3 3
v 6 3.3306690738754696e-16 3.3306690738754696e-16
v 6 3 6.661338147750939e-16
v 6 3.3306690738754696e-16 3
v 6 3.3306690738754696e-16 3
v 3 3.3306690738754696e-16 0
v 6 3.3306690738754696e-16 3.3306690738754696e-16
v 3 3.3306690738754696e-16 3
v 3 3 6.661338147750939e-16
v 6 3.3306690738754696e-16 3.3306690738754696e-16
v 3 3.3306690738754696e-16 0
v 6 3 6.661338147750939e-16
v 6 3 6.661338147750939e-16
v 6 6 3
v 6 3 3
v 6 6 1.3322676295501878e-15
v 6 3 6
v 6 3.3306690738754696e-16 3
v 6 0 6
v 6 0 6
v 3 3.3306690738754696e-16 3
v 6 3.3306690738754696e-16 3
v 3 0 6
v 0 -3.3306690738754696e-16 6
v 3 3 6
v 0 3 6
v 3 0 6
v 0 3 6
v -1.6653345369377348e-16 6 3
v 0 3 3
v 0 6 6
v 3 0 6
v 0 -5.167639352753221e-16 3
v 3 3.3306690738754696e-16 3
v 0 -3.3306690738754696e-16 6
v 6 6 3
v 3 6 6
v 6 6 6
v 3 6 3
v 0 3 6
v 3 6 6
v 0 6 6
v 3 3 6
v 6 6 6
v 6 3 6
v 6 6 3
v 6 6 6
v 6 3 6
v 3 6 6
v 6 6 1.3322676295501878e-15
v 3 6 3
v 6 6 3
v 3 6 1.3322676295501878e-15
v 0 6 6
v -1.6653345369377348e-16 6 3
v 3 6 6
v -1.6653345369377348e-16 6 3
v 3 6 1.3322676295501878e-15
v -1.6653345369377348e-16 6 1.3322676295501878e-15
v 0 3 3
v -1.6653345369377348e-16 6 1.3322676295501878e-15
v -1.6653345369377348e-16 3 6.661338147750939e-16
v -1.6653345369377348e-16 6 3
vt 0.5625 0.75
vt 0.625 0.8125
vt 0.5625 0.8125
vt 0.5625 0.75
vt 0.625 0.75
vt 0.625 0.8125
vt 0.5625 0.75
vt 0.625 0.8125
vt 0.5625 0.8125
vt 0.5625 0.75
vt 0.625 0.75
vt 0.625 0.8125
vt 0.5625 0.75
vt 0.625 0.8125
vt 0.5625 0.8125
vt 0.5625 0.75
vt 0.625 0.75
vt 0.625 0.8125
vt 0.5625 0.75
vt 0.625 0.8125
vt 0.5625 0.8125
vt 0.5625 0.75
vt 0.625 0.75
vt 0.625 0.8125
vt 0.5625 0.75
vt 0.625 0.8125
vt 0.5625 0.8125
vt 0.5625 0.75
vt 0.625 0.75
vt 0.625 0.8125
vt 0.5625 0.75
vt 0.625 0.8125
vt 0.5625 0.8125
vt 0.5625 0.75
vt 0.625 0.75
vt 0.625 0.8125
vt 0.5625 0.75
vt 0.625 0.8125
vt 0.5625 0.8125
vt 0.5625 0.75
vt 0.625 0.75
vt 0.625 0.8125
vt 0.5625 0.75
vt 0.625 0.8125
vt 0.5625 0.8125
vt 0.5625 0.75
vt 0.625 0.75
vt 0.625 0.8125
vt 0.5625 0.75
vt 0.625 0.8125
vt 0.5625 0.8125
vt 0.5625 0.75
vt 0.625 0.75
vt 0.625 0.8125
vt 0.5625 0.75
vt 0.625 0.8125
vt 0.5625 0.8125
vt 0.5625 0.75
vt 0.625 0.75
vt 0.625 0.8125
vt 0.5625 0.75
vt 0.625 0.8125
vt 0.5625 0.8125
vt 0.5625 0.75
vt 0.625 0.75
vt 0.625 0.8125
vt 0.5625 0.75
vt 0.625 0.8125
vt 0.5625 0.8125
vt 0.5625 0.75
vt 0.625 0.75
vt 0.625 0.8125
vt 0.5625 0.75
vt 0.625 0.8125
vt 0.5625 0.8125
vt 0.5625 0.75
vt 0.625 0.75
vt 0.625 0.8125
vt 0.5625 0.75
vt 0.625 0.8125
vt 0.5625 0.8125
vt 0.5625 0.75
vt 0.625 0.75
vt 0.625 0.8125
vt 0.5625 0.75
vt 0.625 0.8125
vt 0.5625 0.8125
vt 0.5625 0.75
vt 0.625 0.75
vt 0.625 0.8125
vt 0.5625 0.75
vt 0.625 0.8125
vt 0.5625 0.8125
vt 0.5625 0.75
vt 0.625 0.75
vt 0.625 0.8125
vt 0.5625 0.75
vt 0.625 0.8125
vt 0.5625 0.8125
vt 0.5625 0.75
vt 0.625 0.75
vt 0.625 0.8125
vt 0.5625 0.75
vt 0.625 0.8125
vt 0.5625 0.8125
vt 0.5625 0.75
vt 0.625 0.75
vt 0.625 0.8125
vt 0.5625 0.75
vt 0.625 0.8125
vt 0.5625 0.8125
vt 0.5625 0.75
vt 0.625 0.75
vt 0.625 0.8125
vt 0.5625 0.75
vt 0.625 0.8125
vt 0.5625 0.8125
vt 0.5625 0.75
vt 0.625 0.75
vt 0.625 0.8125
vt 0.5625 0.75
vt 0.625 0.8125
vt 0.5625 0.8125
vt 0.5625 0.75
vt 0.625 0.75
vt 0.625 0.8125
vt 0.5625 0.75
vt 0.625 0.8125
vt 0.5625 0.8125
vt 0.5625 0.75
vt 0.625 0.75
vt 0.625 0.8125
vt 0.5625 0.75
vt 0.625 0.8125
vt 0.5625 0.8125
vt 0.5625 0.75
vt 0.625 0.75
vt 0.625 0.8125
vt 0.5625 0.75
vt 0.625 0.8125
vt 0.5625 0.8125
vt 0.5625 0.75
vt 0.625 0.75
vt 0.625 0.8125
vn 0 2.220446049250313e-16 -1
vn 0 2.220446049250313e-16 -1
vn 0 2.220446049250313e-16 -1
vn 0 2.220446049250313e-16 -1
vn 0 2.220446049250313e-16 -1
vn 0 2.220446049250313e-16 -1
vn 0 0 1
vn 0 0 1
vn 0 0 1
vn 0 0 1
vn 0 0 1
vn 0 0 1
vn 6.123233932053594e-17 -1 0
vn 6.123233932053594e-17 -1 0
vn 6.123233932053594e-17 -1 0
vn 2.832769475542897e-16 -1 -2.2204460823375376e-16
vn 2.832769475542897e-16 -1 -2.2204460823375376e-16
vn 2.832769475542897e-16 -1 -2.2204460823375376e-16
vn -1 -5.551115123125783e-17 -1.232595164407831e-32
vn -1 -5.551115123125783e-17 -1.232595164407831e-32
vn -1 -5.551115123125783e-17 -1.232595164407831e-32
vn -1 0 5.551115123125784e-17
vn -1 0 5.551115123125784e-17
vn -1 0 5.551115123125784e-17
vn -1.3596310593063863e-32 2.220446049250313e-16 -1
vn -1.3596310593063863e-32 2.220446049250313e-16 -1
vn -1.3596310593063863e-32 2.220446049250313e-16 -1
vn 0 2.2204460492503136e-16 -1
vn 0 2.2204460492503136e-16 -1
vn 0 2.2204460492503136e-16 -1
vn -1 0 0
vn -1 0 0
vn -1 0 0
vn -1 0 0
vn -1 0 0
vn -1 0 0
vn 0 2.220446049250313e-16 -1
vn 0 2.220446049250313e-16 -1
vn 0 2.220446049250313e-16 -1
vn 0 2.220446049250313e-16 -1
vn 0 2.220446049250313e-16 -1
vn 0 2.220446049250313e-16 -1
vn 1 0 0
vn 1 0 0
vn 1 0 0
vn 1 0 0
vn 1 0 0
vn 1 0 0
vn 0 -1 0
vn 0 -1 0
vn 0 -1 0
vn 0 -1 0
vn 0 -1 0
vn 0 -1 0
vn 1.1102230246251565e-16 2.2204460492503136e-16 -1
vn 1.1102230246251565e-16 2.2204460492503136e-16 -1
vn 1.1102230246251565e-16 2.2204460492503136e-16 -1
vn 0 1.1102230246251568e-16 -1
vn 0 1.1102230246251568e-16 -1
vn 0 1.1102230246251568e-16 -1
vn 1 0 0
vn 1 0 0
vn 1 0 0
vn 1 0 0
vn 1 0 0
vn 1 0 0
vn 1 0 0
vn 1 0 0
vn 1 0 0
vn 1 0 0
vn 1 0 0
vn 1 0 0
vn 0 -1 -1.1102230246251565e-16
vn 0 -1 -1.1102230246251565e-16
vn 0 -1 -1.1102230246251565e-16
vn 0 -1 -1.1102230246251565e-16
vn 0 -1 -1.1102230246251565e-16
vn 0 -1 -1.1102230246251565e-16
vn 0 0 1
vn 0 0 1
vn 0 0 1
vn 0 0 1
vn 0 0 1
vn 0 0 1
vn -1 -5.551115123125783e-17 0
vn -1 -5.551115123125783e-17 0
vn -1 -5.551115123125783e-17 0
vn -1 0 5.551115123125783e-17
vn -1 0 5.551115123125783e-17
vn -1 0 5.551115123125783e-17
vn 2.832769475542897e-16 -1 -1.1102230246251565e-16
vn 2.832769475542897e-16 -1 -1.1102230246251565e-16
vn 2.832769475542897e-16 -1 -1.1102230246251565e-16
vn 1.1102230246251565e-16 -1 6.123234262925839e-17
vn 1.1102230246251565e-16 -1 6.123234262925839e-17
vn 1.1102230246251565e-16 -1 6.123234262925839e-17
vn 0 1 0
vn 0 1 0
vn 0 1 0
vn 0 1 0
vn 0 1 0
vn 0 1 0
vn 0 0 1
vn 0 0 1
vn 0 0 1
vn 0 0 1
vn 0 0 1
vn 0 0 1
vn 1 0 0
vn 1 0 0
vn 1 0 0
vn 1 0 0
vn 1 0 0
vn 1 0 0
vn 0 0 1
vn 0 0 1
vn 0 0 1
vn 0 0 1
vn 0 0 1
vn 0 0 1
vn 0 1 0
vn 0 1 0
vn 0 1 0
vn 0 1 0
vn 0 1 0
vn 0 1 0
vn 0 1 0
vn 0 1 0
vn 0 1 0
vn 0 1 0
vn 0 1 0
vn 0 1 0
vn 0 1 0
vn 0 1 0
vn 0 1 0
vn 0 1 0
vn 0 1 0
vn 0 1 0
vn -1 -1.2325951644078312e-32 5.551115123125784e-17
vn -1 -1.2325951644078312e-32 5.551115123125784e-17
vn -1 -1.2325951644078312e-32 5.551115123125784e-17
vn -1 -5.551115123125783e-17 0
vn -1 -5.551115123125783e-17 0
vn -1 -5.551115123125783e-17 0
g Scene
usemtl material0
f 1/1/1 2/2/2 3/3/3
f 1/4/4 4/5/5 2/6/6
f 5/7/7 6/8/8 7/9/9
f 5/10/10 8/11/11 6/12/12
f 9/13/13 10/14/14 11/15/15
f 9/16/16 12/17/17 10/18/18
f 13/19/19 14/20/20 15/21/21
f 13/22/22 16/23/23 14/24/24
f 17/25/25 18/26/26 19/27/27
f 17/28/28 20/29/29 18/30/30
f 21/31/31 22/32/32 23/33/33
f 21/34/34 24/35/35 22/36/36
f 25/37/37 26/38/38 27/39/39
f 25/40/40 20/41/41 26/42/42
f 28/43/43 29/44/44 30/45/45
f 28/46/46 31/47/47 29/48/48
f 32/49/49 33/50/50 34/51/51
f 32/52/52 35/53/53 33/54/54
f 36/55/55 37/56/56 38/57/57
f 36/58/58 39/59/59 37/60/60
f 40/61/61 41/62/62 42/63/63
f 40/64/64 43/65/65 41/66/66
f 44/67/67 45/68/68 42/69/69
f 44/70/70 46/71/71 45/72/72
f 47/73/73 48/74/74 49/75/75
f 47/76/76 50/77/77 48/78/78
f 51/79/79 52/80/80 53/81/81
f 51/82/82 54/83/83 52/84/84
f 55/85/85 56/86/86 57/87/87
f 55/88/88 58/89/89 56/90/90
f 59/91/91 60/92/92 61/93/93
f 59/94/94 62/95/95 60/96/96
f 63/97/97 64/98/98 65/99/99
f 63/100/100 66/101/101 64/102/102
f 67/103/103 68/104/104 69/105/105
f 67/106/106 70/107/107 68/108/108
f 28/109/109 71/110/110 72/111/111
f 28/112/112 73/113/113 71/114/114
f 74/115/115 52/116/116 75/117/117
f 74/118/118 76/119/119 52/120/120
f 77/121/121 78/122/122 79/123/123
f 77/124/124 80/125/125 78/126/126
f 81/127/127 78/128/128 82/129/129
f 81/130/130 83/131/131 78/132/132
f 84/133/133 85/134/134 86/135/135
f 84/136/136 66/137/137 85/138/138
f 87/139/139 88/140/140 89/141/141
f 87/142/142 90/143/143 88/144/144
