o Default
v 0 3 3
v 3 3 6.661338147750939e-16
v 0 3 6.661338147750939e-16
v 3 3 3
v 3 0 6
v 6 3 6
v 3 3 6
v 6 0 6
v 3 3.3306690738754696e-16 3
v 0 1.4936988942593913e-16 0
v 3 3.3306690738754696e-16 0
v 0 -5.167639352753221e-16 3
v 0 -5.167639352753221e-16 3
v 0 3 6.661338147750939e-16
v 0 1.4936988942593913e-16 0
v 0 3 3
v 0 3 6.661338147750939e-16
v 3 3.3306690738754696e-16 0
v 3 3 6.661338147750939e-16
v 0 -3.3306690738754696e-16 6
v 0 3 3
v 0 -5.167639352753221e-16 3
v 0 3 6
v 3 3 3
v 6 3 6.661338147750939e-16
v 3 3 6.661338147750939e-16
v 6 3 3
v 6 3 3
v 6 3.3306690738754696e-16 3.3306690738754696e-16
v 6 3 6.661338147750939e-16
v 6 3.3306690738754696e-16 3
v 6 3.3306690738754696e-16 3
v 6 3.3306690738754696e-16 3.3306690738754696e-16
v 3 3.3306690738754696e-16 3
v 3 3 6.661338147750939e-16
v 6 3 6.661338147750939e-16
v 3 3 6
v 6 3 3
v 3 3 3
v 6 3 6
v 6 3 6
v 6 3.3306690738754696e-16 3
v 6 3 3
v 6 0 6
v 3 3.3306690738754696e-16 3
v 6 3.3306690738754696e-16 3
v 3 0 6
v 3 3 6
v 0 3 6
v 0 3 6
v 3 3 3
v 0 3 3
v 3 3 6
v 0 -5.167639352753221e-16 3
v 3 3.3306690738754696e-16 3
v 0 -5.167639352753221e-16 6
vt 0.5625 0.75
vt 0.625 0.8125
vt 0.5625 0.8125
vt 0.5625 0.75
vt 0.625 0.75
vt 0.625 0.8125
vt 0.5625 0.75
vt 0.625 0.8125
vt 0.5625 0.8125
vt 0.5625 0.75
vt 0.625 0.75
vt 0.625 0.8125
vt 0.5625 0.75
vt 0.625 0.8125
vt 0.5625 0.8125
vt 0.5625 0.75
vt 0.625 0.75
vt 0.625 0.8125
vt 0.5625 0.75
vt 0.625 0.8125
vt 0.5625 0.8125
vt 0.5625 0.75
vt 0.625 0.75
vt 0.625 0.8125
vt 0.5625 0.75
vt 0.625 0.8125
vt 0.5625 0.8125
vt 0.5625 0.75
vt 0.625 0.75
vt 0.625 0.8125
vt 0.5625 0.75
vt 0.625 0.8125
vt 0.5625 0.8125
vt 0.5625 0.75
vt 0.625 0.75
vt 0.625 0.8125
vt 0.5625 0.75
vt 0.625 0.8125
vt 0.5625 0.8125
vt 0.5625 0.75
vt 0.625 0.75
vt 0.625 0.8125
vt 0.5625 0.75
vt 0.625 0.8125
vt 0.5625 0.8125
vt 0.5625 0.75
vt 0.625 0.75
vt 0.625 0.8125
vt 0.5625 0.75
vt 0.625 0.8125
vt 0.5625 0.8125
vt 0.5625 0.75
vt 0.625 0.75
vt 0.625 0.8125
vt 0.5625 0.75
vt 0.625 0.8125
vt 0.5625 0.8125
vt 0.5625 0.75
vt 0.625 0.75
vt 0.625 0.8125
vt 0.5625 0.75
vt 0.625 0.8125
vt 0.5625 0.8125
vt 0.5625 0.75
vt 0.625 0.75
vt 0.625 0.8125
vt 0.5625 0.75
vt 0.625 0.8125
vt 0.5625 0.8125
vt 0.5625 0.75
vt 0.625 0.75
vt 0.625 0.8125
vt 0.5625 0.75
vt 0.625 0.8125
vt 0.5625 0.8125
vt 0.5625 0.75
vt 0.625 0.75
vt 0.625 0.8125
vt 0.5625 0.75
vt 0.625 0.8125
vt 0.5625 0.8125
vt 0.5625 0.75
vt 0.625 0.75
vt 0.625 0.8125
vt 0.5625 0.75
vt 0.625 0.8125
vt 0.5625 0.8125
vt 0.5625 0.75
vt 0.625 0.75
vt 0.625 0.8125
vt 0.5625 0.75
vt 0.625 0.8125
vt 0.5625 0.8125
vt 0.5625 0.75
vt 0.625 0.75
vt 0.625 0.8125
vn 0 1 0
vn 0 1 0
vn 0 1 0
vn 0 1 0
vn 0 1 0
vn 0 1 0
vn 0 0 1
vn 0 0 1
vn 0 0 1
vn 0 0 1
vn 0 0 1
vn 0 0 1
vn 6.123233932053594e-17 -1 0
vn 6.123233932053594e-17 -1 0
vn 6.123233932053594e-17 -1 0
vn 2.832769475542897e-16 -1 -2.2204460823375376e-16
vn 2.832769475542897e-16 -1 -2.2204460823375376e-16
vn 2.832769475542897e-16 -1 -2.2204460823375376e-16
vn -1 0 0
vn -1 0 0
vn -1 0 0
vn -1 0 0
vn -1 0 0
vn -1 0 0
vn -1.3596310593063863e-32 2.220446049250313e-16 -1
vn -1.3596310593063863e-32 2.220446049250313e-16 -1
vn -1.3596310593063863e-32 2.220446049250313e-16 -1
vn 0 2.2204460492503136e-16 -1
vn 0 2.2204460492503136e-16 -1
vn 0 2.2204460492503136e-16 -1
vn -1 0 0
vn -1 0 0
vn -1 0 0
vn -1 0 0
vn -1 0 0
vn -1 0 0
vn 0 1 0
vn 0 1 0
vn 0 1 0
vn 0 1 0
vn 0 1 0
vn 0 1 0
vn 1 0 0
vn 1 0 0
vn 1 0 0
vn 1 0 0
vn 1 0 0
vn 1 0 0
vn 0 -1 0
vn 0 -1 0
vn 0 -1 0
vn 0 -1 0
vn 0 -1 0
vn 0 -1 0
vn 1.1102230246251565e-16 2.2204460492503136e-16 -1
vn 1.1102230246251565e-16 2.2204460492503136e-16 -1
vn 1.1102230246251565e-16 2.2204460492503136e-16 -1
vn 0 1.1102230246251568e-16 -1
vn 0 1.1102230246251568e-16 -1
vn 0 1.1102230246251568e-16 -1
vn 0 1 0
vn 0 1 0
vn 0 1 0
vn 0 1 0
vn 0 1 0
vn 0 1 0
vn 1 0 0
vn 1 0 0
vn 1 0 0
vn 1 0 0
vn 1 0 0
vn 1 0 0
vn 0 -1 -1.1102230246251565e-16
vn 0 -1 -1.1102230246251565e-16
vn 0 -1 -1.1102230246251565e-16
vn 0 -1 -1.1102230246251565e-16
vn 0 -1 -1.1102230246251565e-16
vn 0 -1 -1.1102230246251565e-16
vn 0 0 1
vn 0 0 1
vn 0 0 1
vn 0 0 1
vn 0 0 1
vn 0 0 1
vn 0 1 0
vn 0 1 0
vn 0 1 0
vn 0 1 0
vn 0 1 0
vn 0 1 0
vn 2.832769475542897e-16 -1 -1.1102230246251565e-16
vn 2.832769475542897e-16 -1 -1.1102230246251565e-16
vn 2.832769475542897e-16 -1 -1.1102230246251565e-16
vn 1.7225464509177405e-16 -1 0
vn 1.7225464509177405e-16 -1 0
vn 1.7225464509177405e-16 -1 0
g Scene
usemtl material0
f 1/1/1 2/2/2 3/3/3
f 1/4/4 4/5/5 2/6/6
f 5/7/7 6/8/8 7/9/9
f 5/10/10 8/11/11 6/12/12
f 9/13/13 10/14/14 11/15/15
f 9/16/16 12/17/17 10/18/18
f 13/19/19 14/20/20 15/21/21
f 13/22/22 16/23/23 14/24/24
f 17/25/25 18/26/26 15/27/27
f 17/28/28 19/29/29 18/30/30
f 20/31/31 21/32/32 22/33/33
f 20/34/34 23/35/35 21/36/36
f 24/37/37 25/38/38 26/39/39
f 24/40/40 27/41/41 25/42/42
f 28/43/43 29/44/44 30/45/45
f 28/46/46 31/47/47 29/48/48
f 32/49/49 18/50/50 33/51/51
f 32/52/52 34/53/53 18/54/54
f 35/55/55 29/56/56 11/57/57
f 35/58/58 36/59/59 29/60/60
f 37/61/61 38/62/62 39/63/63
f 37/64/64 40/65/65 38/66/66
f 41/67/67 42/68/68 43/69/69
f 41/70/70 8/71/71 42/72/72
f 44/73/73 45/74/74 46/75/75
f 44/76/76 47/77/77 45/78/78
f 20/79/79 48/80/80 49/81/81
f 20/82/82 47/83/83 48/84/84
f 50/85/85 51/86/86 52/87/87
f 50/88/88 53/89/89 51/90/90
f 5/91/91 54/92/92 55/93/93
f 5/94/94 56/95/95 54/96/96
